<svg xmlns="http://www.w3.org/2000/svg" fill-rule="evenodd" stroke-linejoin="round" stroke-miterlimit="2" clip-rule="evenodd" id="multiply" viewBox="7.96 7.96 8.07 8.07"><path d="M8.818,15.889l7.071,-7.071c0.195,-0.195 0.195,-0.512 0,-0.707c-0.195,-0.195 -0.512,-0.195 -0.707,-0l-7.071,7.071c-0.195,0.195 -0.195,0.512 -0,0.707c0.195,0.195 0.512,0.195 0.707,0Z"></path><path d="M15.889,15.182l-7.071,-7.071c-0.195,-0.195 -0.512,-0.195 -0.707,-0c-0.195,0.195 -0.195,0.512 -0,0.707l7.071,7.071c0.195,0.195 0.512,0.195 0.707,0c0.195,-0.195 0.195,-0.512 0,-0.707Z"></path></svg>