<svg xmlns="http://www.w3.org/2000/svg" version="1.1" viewBox="216.96 209 65.04 63.11">
<path d="M0 0 C0 16.17 0 32.34 0 49 C-4.62 49 -9.24 49 -14 49 C-15 48 -15 48 -15.11352539 44.67358398 C-15.11336629 43.19774444 -15.10767314 41.72189931 -15.09765625 40.24609375 C-15.0962413 39.47064713 -15.09482635 38.6952005 -15.09336853 37.89625549 C-15.08775345 35.40996506 -15.07519846 32.9237634 -15.0625 30.4375 C-15.05748694 28.75586067 -15.0529237 27.07421994 -15.04882812 25.39257812 C-15.03777913 21.26168434 -15.02050445 17.13085724 -15 13 C-18.3 13 -21.6 13 -25 13 C-25 24.55 -25 36.1 -25 48 C-29.62 48 -34.24 48 -39 48 C-39 37.44 -39 26.88 -39 16 C-42.63 16 -46.26 16 -50 16 C-49.99476318 16.96413818 -49.98952637 17.92827637 -49.98413086 18.92163086 C-49.96607882 22.48672564 -49.95456726 26.05181636 -49.94506836 29.61694336 C-49.9400286 31.16219766 -49.9331968 32.70744716 -49.92456055 34.25268555 C-49.91247924 36.46925029 -49.90676827 38.68575218 -49.90234375 40.90234375 C-49.89718246 41.5971434 -49.89202118 42.29194305 -49.88670349 43.00779724 C-49.88650723 44.6722933 -49.93810871 46.33665499 -50 48 C-51 49 -51 49 -53.94140625 49.09765625 C-55.13636719 49.08605469 -56.33132812 49.07445312 -57.5625 49.0625 C-59.35880859 49.04896484 -59.35880859 49.04896484 -61.19140625 49.03515625 C-62.11824219 49.02355469 -63.04507813 49.01195312 -64 49 C-64.83712183 46.10420758 -65.10137258 43.60740846 -65.02172852 40.59863281 C-65.00163223 39.7380426 -64.98153595 38.87745239 -64.96083069 37.99078369 C-64.93379562 37.07085632 -64.90676056 36.15092896 -64.87890625 35.203125 C-64.85529526 34.25435486 -64.83168427 33.30558472 -64.80735779 32.32806396 C-64.73087006 29.30188479 -64.64678153 26.27597116 -64.5625 23.25 C-64.50926442 21.19662752 -64.45652412 19.14324213 -64.40429688 17.08984375 C-64.27527502 12.05972812 -64.13943665 7.02983727 -64 2 C-58.11095511 0.75175094 -52.24262987 0.77567495 -46.25 0.68359375 C-45.11852539 0.66281265 -43.98705078 0.64203156 -42.82128906 0.62062073 C-39.21425236 0.55542976 -35.60714357 0.49644812 -32 0.4375 C-29.57290961 0.39427474 -27.14582613 0.3506592 -24.71875 0.30664062 C-20.265662 0.22742556 -15.81256585 0.14915367 -11.359375 0.07592773 C-10.02084473 0.0538047 -10.02084473 0.0538047 -8.65527344 0.03123474 C-5.7703631 -0.00270128 -2.88510993 0 0 0 Z " fill="#DC5959" transform="translate(282,209)"/>
<path d="M0 0 C0.33 0 0.66 0 1 0 C1 14.52 1 29.04 1 44 C4.63 44 8.26 44 12 44 C11.98839844 43.01902344 11.97679687 42.03804687 11.96484375 41.02734375 C11.8889663 31.67107095 11.95413454 22.30949377 13 13 C14 12 14 12 16.6875 11.8671875 C17.780625 11.86976563 18.87375 11.87234375 20 11.875 C21.093125 11.87242187 22.18625 11.86984375 23.3125 11.8671875 C26 12 26 12 27 13 C27.08790975 15.29151417 27.10694038 17.58572524 27.09765625 19.87890625 C27.0962413 20.5655687 27.09482635 21.25223114 27.09336853 21.95970154 C27.08775479 24.16067801 27.07520007 26.36155409 27.0625 28.5625 C27.05748676 30.05143083 27.05292355 31.54036324 27.04882812 33.02929688 C27.03778093 36.68623075 27.02050713 40.34310558 27 44 C30.3 44 33.6 44 37 44 C37 33.11 37 22.22 37 11 C37.66 11 38.32 11 39 11 C39 22.55 39 34.1 39 46 C34.38 46 29.76 46 25 46 C25 35.44 25 24.88 25 14 C21.37 14 17.74 14 14 14 C14.00523682 14.96413818 14.01047363 15.92827637 14.01586914 16.92163086 C14.03392118 20.48672564 14.04543274 24.05181636 14.05493164 27.61694336 C14.0599714 29.16219766 14.0668032 30.70744716 14.07543945 32.25268555 C14.08752076 34.46925029 14.09323173 36.68575218 14.09765625 38.90234375 C14.10281754 39.5971434 14.10797882 40.29194305 14.11329651 41.00779724 C14.11349277 42.6722933 14.06189129 44.33665499 14 46 C13 47 13 47 10.05859375 47.09765625 C8.86363281 47.08605469 7.66867188 47.07445312 6.4375 47.0625 C4.64119141 47.04896484 4.64119141 47.04896484 2.80859375 47.03515625 C1.88175781 47.02355469 0.95492187 47.01195312 0 47 C-0.83712183 44.10420758 -1.10137258 41.60740846 -1.02172852 38.59863281 C-1.00163223 37.7380426 -0.98153595 36.87745239 -0.96083069 35.99078369 C-0.93379562 35.07085632 -0.90676056 34.15092896 -0.87890625 33.203125 C-0.85529526 32.25435486 -0.83168427 31.30558472 -0.80735779 30.32806396 C-0.73087006 27.30188479 -0.64678153 24.27597116 -0.5625 21.25 C-0.50926442 19.19662752 -0.45652412 17.14324213 -0.40429688 15.08984375 C-0.27527502 10.05972812 -0.13943665 5.02983727 0 0 Z " fill="#D88384" transform="translate(218,211)"/>
<path d="M0 0 C7.92 0 15.84 0 24 0 C24.33 2.97 24.66 5.94 25 9 C24 10 24 10 21.68334961 10.11352539 C20.68311768 10.10828857 19.68288574 10.10305176 18.65234375 10.09765625 C17.57275391 10.09443359 16.49316406 10.09121094 15.38085938 10.08789062 C14.24455078 10.07951172 13.10824219 10.07113281 11.9375 10.0625 C10.79732422 10.05798828 9.65714844 10.05347656 8.48242188 10.04882812 C5.65489649 10.03699747 2.8274736 10.0205141 0 10 C0 6.7 0 3.4 0 0 Z " fill="#DB6364" transform="translate(238,262)"/>
<path d="M0 0 C0.33 0 0.66 0 1 0 C1 14.52 1 29.04 1 44 C4.63 44 8.26 44 12 44 C11.98839844 43.01902344 11.97679687 42.03804687 11.96484375 41.02734375 C11.8898407 31.63321132 12.24646225 22.36539772 13 13 C16.3 13 19.6 13 23 13 C23 13.33 23 13.66 23 14 C20.03 14 17.06 14 14 14 C14.00523682 14.96413818 14.01047363 15.92827637 14.01586914 16.92163086 C14.03392118 20.48672564 14.04543274 24.05181636 14.05493164 27.61694336 C14.0599714 29.16219766 14.0668032 30.70744716 14.07543945 32.25268555 C14.08752076 34.46925029 14.09323173 36.68575218 14.09765625 38.90234375 C14.10281754 39.5971434 14.10797882 40.29194305 14.11329651 41.00779724 C14.11349277 42.6722933 14.06189129 44.33665499 14 46 C13 47 13 47 10.05859375 47.09765625 C8.86363281 47.08605469 7.66867188 47.07445312 6.4375 47.0625 C4.64119141 47.04896484 4.64119141 47.04896484 2.80859375 47.03515625 C1.88175781 47.02355469 0.95492187 47.01195312 0 47 C-0.83712183 44.10420758 -1.10137258 41.60740846 -1.02172852 38.59863281 C-1.00163223 37.7380426 -0.98153595 36.87745239 -0.96083069 35.99078369 C-0.93379562 35.07085632 -0.90676056 34.15092896 -0.87890625 33.203125 C-0.85529526 32.25435486 -0.83168427 31.30558472 -0.80735779 30.32806396 C-0.73087006 27.30188479 -0.64678153 24.27597116 -0.5625 21.25 C-0.50926442 19.19662752 -0.45652412 17.14324213 -0.40429688 15.08984375 C-0.27527502 10.05972812 -0.13943665 5.02983727 0 0 Z " fill="#E89E9F" transform="translate(218,211)"/>
<path d="M0 0 C0 16.17 0 32.34 0 49 C-4.62 49 -9.24 49 -14 49 C-14 48.67 -14 48.34 -14 48 C-9.71 48 -5.42 48 -1 48 C-1.33 32.82 -1.66 17.64 -2 2 C-20.48 2 -38.96 2 -58 2 C-58 1.67 -58 1.34 -58 1 C-50.70428012 0.85676832 -43.40854289 0.71444703 -36.11279297 0.57275391 C-33.6316691 0.52446031 -31.15054926 0.47595953 -28.66943359 0.42724609 C-25.09994532 0.35720007 -21.53044317 0.287903 -17.9609375 0.21875 C-16.30123428 0.18593933 -16.30123428 0.18593933 -14.60800171 0.15246582 C-13.56737579 0.13244507 -12.52674988 0.11242432 -11.45458984 0.09179688 C-10.5441391 0.07403198 -9.63368835 0.05626709 -8.69564819 0.03796387 C-5.79735858 -0.00285388 -2.89857702 0 0 0 Z " fill="#EBA4A5" transform="translate(282,209)"/>
<path d="M0 0 C6.93 0 13.86 0 21 0 C21 0.66 21 1.32 21 2 C14.73 2 8.46 2 2 2 C2.020625 4.3925 2.04125 6.785 2.0625 9.25 C2.09182847 16.21157759 1.73469194 23.07290458 1 30 C0.67 30 0.34 30 0 30 C0 20.1 0 10.2 0 0 Z " fill="#CD5D5E" transform="translate(219,211)"/>
</svg>