<svg xmlns="http://www.w3.org/2000/svg" version="1.1" viewBox="125.89 193.79 264.12 77.21">
<path d="M0 0 C0.8353125 -0.00257813 1.670625 -0.00515625 2.53125 -0.0078125 C4.5 0.125 4.5 0.125 5.5 1.125 C5.65123618 2.48094988 5.73790106 3.84420324 5.79711914 5.20727539 C5.8570681 6.51112938 5.8570681 6.51112938 5.91822815 7.84132385 C5.95681442 8.79216354 5.9954007 9.74300323 6.03515625 10.72265625 C6.09962196 12.19514076 6.09962196 12.19514076 6.16539001 13.69737244 C6.2558698 15.78976797 6.34397442 17.88226731 6.42993164 19.97485352 C6.55980558 23.12220384 6.69819809 26.26908766 6.83789062 29.41601562 C6.92499928 31.45570702 7.01160209 33.49542009 7.09765625 35.53515625 C7.13826675 36.45563248 7.17887726 37.3761087 7.22071838 38.32447815 C7.5535489 46.61064225 7.5 54.8080352 7.5 63.125 C-13.95 63.125 -35.4 63.125 -57.5 63.125 C-58.70467266 58.30630934 -58.86627064 53.76054229 -59.0625 48.8125 C-59.1049585 47.78318359 -59.14741699 46.75386719 -59.19116211 45.69335938 C-59.69942055 31.84254995 -59.58921716 17.98248456 -59.5 4.125 C-46.72082873 3.04113696 -33.95236887 1.98452357 -21.13574219 1.46704102 C-16.56968047 1.2732546 -12.07368797 0.87532857 -7.53515625 0.34106445 C-5.01730493 0.07375418 -2.53130041 -0.00801044 0 0 Z M-29.875 16.125 C-30.89722656 16.22039062 -31.91945313 16.31578125 -32.97265625 16.4140625 C-35.48201248 16.64858177 -37.99110235 16.88563296 -40.5 17.125 C-40.92229081 31.19368942 -40.92229081 31.19368942 -39.5 45.125 C-36.91276011 46.41861994 -35.01886997 46.25448949 -32.125 46.2578125 C-30.52398437 46.25974609 -30.52398437 46.25974609 -28.890625 46.26171875 C-27.77171875 46.25785156 -26.6528125 46.25398438 -25.5 46.25 C-24.38109375 46.25386719 -23.2621875 46.25773437 -22.109375 46.26171875 C-21.04203125 46.26042969 -19.9746875 46.25914062 -18.875 46.2578125 C-17.89273438 46.25668457 -16.91046875 46.25555664 -15.8984375 46.25439453 C-13.48592106 46.28395235 -13.48592106 46.28395235 -11.5 45.125 C-11.4753015 41.17400072 -11.45714077 37.22303126 -11.44506836 33.27197266 C-11.43755964 31.26593449 -11.4248553 29.25991798 -11.41210938 27.25390625 C-11.40888672 25.99707031 -11.40566406 24.74023438 -11.40234375 23.4453125 C-11.39710693 22.28273926 -11.39187012 21.12016602 -11.38647461 19.92236328 C-11.30643717 17.16997808 -11.30643717 17.16997808 -12.5 15.125 C-18.33436618 14.9656999 -24.07527936 15.57122022 -29.875 16.125 Z " fill="#90D0FE" transform="translate(382.5,207.875)"/>
<path d="M0 0 C0.9356076 -0.00249756 1.87121521 -0.00499512 2.83517456 -0.00756836 C5.51255033 -0.01343459 8.18981058 -0.01197982 10.8671875 -0.0078125 C11.68597885 -0.00979645 12.5047702 -0.0117804 13.34837341 -0.01382446 C19.00975174 0.00975174 19.00975174 0.00975174 20.125 1.125 C20.22322744 2.59305292 20.2529837 4.0657746 20.25439453 5.53710938 C20.25754669 6.47478149 20.26069885 7.41245361 20.26394653 8.37854004 C20.26091019 9.90819397 20.26091019 9.90819397 20.2578125 11.46875 C20.25876923 12.50817749 20.25972595 13.54760498 20.26071167 14.61853027 C20.26139363 16.82104554 20.25953827 19.02356279 20.25537109 21.22607422 C20.25002308 24.61039719 20.25531559 27.99458744 20.26171875 31.37890625 C20.26105797 33.51302113 20.25977681 35.64713592 20.2578125 37.78125 C20.25983673 38.80101929 20.26186096 39.82078857 20.26394653 40.87145996 C20.25921829 42.27796814 20.25921829 42.27796814 20.25439453 43.71289062 C20.25359894 44.54260376 20.25280334 45.37231689 20.25198364 46.22717285 C20.125 48.125 20.125 48.125 19.125 49.125 C16.79339945 49.22409302 14.45870058 49.25470504 12.125 49.25 C10.84625 49.25257813 9.5675 49.25515625 8.25 49.2578125 C5.125 49.125 5.125 49.125 4.125 48.125 C4.03648471 45.53140678 4.00974055 42.96460309 4.02734375 40.37109375 C4.0287587 39.59564713 4.03017365 38.8202005 4.03163147 38.02125549 C4.03724655 35.53496506 4.04980154 33.0487634 4.0625 30.5625 C4.06751306 28.88086067 4.0720763 27.19921994 4.07617188 25.51757812 C4.08722087 21.38668434 4.10449555 17.25585724 4.125 13.125 C-0.33 13.62 -0.33 13.62 -4.875 14.125 C-4.86976318 15.14972412 -4.86452637 16.17444824 -4.85913086 17.23022461 C-4.84108031 21.01895276 -4.8295678 24.80767709 -4.82006836 28.59643555 C-4.81502826 30.23869464 -4.80819622 31.88094923 -4.79956055 33.52319336 C-4.78748074 35.87875479 -4.78176861 38.23425709 -4.77734375 40.58984375 C-4.77218246 41.32839096 -4.76702118 42.06693817 -4.76170349 42.8278656 C-4.7615075 44.59398088 -4.81305281 46.35997146 -4.875 48.125 C-5.875 49.125 -5.875 49.125 -8.78125 49.2578125 C-9.9671875 49.25523437 -11.153125 49.25265625 -12.375 49.25 C-13.5609375 49.25257813 -14.746875 49.25515625 -15.96875 49.2578125 C-18.875 49.125 -18.875 49.125 -19.875 48.125 C-19.9633967 45.7493148 -19.99030305 43.40291326 -19.97265625 41.02734375 C-19.9712413 40.31848526 -19.96982635 39.60962677 -19.96836853 38.87928772 C-19.96275443 36.60698288 -19.95019963 34.33477525 -19.9375 32.0625 C-19.93248681 30.52539204 -19.92792359 28.98828255 -19.92382812 27.45117188 C-19.91278042 23.67574358 -19.89550641 19.90038829 -19.875 16.125 C-23.505 16.125 -27.135 16.125 -30.875 16.125 C-30.86976318 17.08913818 -30.86452637 18.05327637 -30.85913086 19.04663086 C-30.84107882 22.61172564 -30.82956726 26.17681636 -30.82006836 29.74194336 C-30.8150286 31.28719766 -30.8081968 32.83244716 -30.79956055 34.37768555 C-30.78747924 36.59425029 -30.78176827 38.81075218 -30.77734375 41.02734375 C-30.77218246 41.7221434 -30.76702118 42.41694305 -30.76170349 43.13279724 C-30.76150723 44.7972933 -30.81310871 46.46165499 -30.875 48.125 C-31.875 49.125 -31.875 49.125 -35.03515625 49.22265625 C-36.32292969 49.21105469 -37.61070312 49.19945312 -38.9375 49.1875 C-40.22785156 49.17847656 -41.51820313 49.16945312 -42.84765625 49.16015625 C-43.84667969 49.14855469 -44.84570312 49.13695312 -45.875 49.125 C-45.89981154 43.41414706 -45.91791275 37.70332586 -45.92993164 31.99243164 C-45.93494485 30.05167087 -45.94175712 28.11091384 -45.95043945 26.17016602 C-45.96263732 23.37254916 -45.96825855 20.57498245 -45.97265625 17.77734375 C-45.97781754 16.9166478 -45.98297882 16.05595184 -45.98829651 15.16917419 C-45.98873768 10.37770335 -45.68061817 5.84999236 -44.875 1.125 C-29.91466474 0.21338001 -14.9836599 0.01426043 0 0 Z " fill="#DF5757" transform="translate(171.875,205.875)"/>
<path d="M0 0 C2.95887459 -0.08069658 5.9155659 -0.14034665 8.875 -0.1875 C9.71675781 -0.21263672 10.55851563 -0.23777344 11.42578125 -0.26367188 C12.23144531 -0.27333984 13.03710938 -0.28300781 13.8671875 -0.29296875 C14.98262939 -0.31653442 14.98262939 -0.31653442 16.12060547 -0.34057617 C17.05090576 -0.17199097 17.05090576 -0.17199097 18 0 C20.02350324 3.03525486 20.32124018 4.19426202 20.625 7.6875 C20.69976562 8.49574219 20.77453125 9.30398437 20.8515625 10.13671875 C20.92503906 11.05904297 20.92503906 11.05904297 21 12 C21.66 12 22.32 12 23 12 C23.99 15.63 24.98 19.26 26 23 C26.433125 21.68 26.86625 20.36 27.3125 19 C28.77109355 14.62421935 30.34060058 10.30318833 32 6 C32.37125 5.030625 32.7425 4.06125 33.125 3.0625 C34 1 34 1 35 0 C36.41844613 -0.0165911 37.83787607 0.0366946 39.25390625 0.12109375 C40.53491211 0.19360352 40.53491211 0.19360352 41.84179688 0.26757812 C42.73962891 0.32365234 43.63746094 0.37972656 44.5625 0.4375 C45.46419922 0.48970703 46.36589844 0.54191406 47.29492188 0.59570312 C49.5302655 0.72580249 51.7652089 0.86077936 54 1 C53.46726854 6.65323177 51.91274643 11.04622157 49.5078125 16.1640625 C49.16120575 16.91916107 48.814599 17.67425964 48.45748901 18.45223999 C47.72706107 20.03913928 46.99229417 21.6240479 46.25341797 23.20703125 C45.12697704 25.62076361 44.01354569 28.0401573 42.90234375 30.4609375 C42.18824941 32.0081586 41.47343004 33.55504532 40.7578125 35.1015625 C40.42645294 35.81937897 40.09509338 36.53719543 39.75369263 37.27676392 C35.96125645 45.38822625 35.96125645 45.38822625 34 48 C32.00708008 48.56762695 32.00708008 48.56762695 29.76953125 48.48828125 C28.56586914 48.46411133 28.56586914 48.46411133 27.33789062 48.43945312 C26.50451172 48.39755859 25.67113281 48.35566406 24.8125 48.3125 C23.96751953 48.28994141 23.12253906 48.26738281 22.25195312 48.24414062 C20.16721202 48.18524963 18.08338196 48.09556798 16 48 C13.68473421 42.81298019 11.80571462 37.59060658 10.0625 32.1875 C7.93221057 25.68645569 5.63623891 19.31525676 3 13 C1.16209402 8.55905122 -0.16737909 4.86236251 0 0 Z " fill="#8CC54B" transform="translate(221,222)"/>
<path d="M0 0 C1.56047445 0.00015913 3.12095416 0.00585397 4.68139648 0.01586914 C5.91115456 0.01799156 5.91115456 0.01799156 7.16575623 0.02015686 C9.79470406 0.0257725 12.42356797 0.0383276 15.05249023 0.05102539 C16.8304838 0.05603838 18.60847869 0.06060163 20.38647461 0.06469727 C24.75434569 0.07574701 29.12215371 0.09302208 33.48999023 0.11352539 C33.51886837 3.5926748 33.5367471 7.0717937 33.55249023 10.55102539 C33.56086914 11.54424805 33.56924805 12.5374707 33.57788086 13.56079102 C33.58110352 14.5050293 33.58432617 15.44926758 33.58764648 16.42211914 C33.5928833 17.29666748 33.59812012 18.17121582 33.60351562 19.07226562 C33.48999023 21.11352539 33.48999023 21.11352539 32.48999023 22.11352539 C30.32518227 22.21245479 28.15705238 22.2432364 25.98999023 22.23852539 C24.80405273 22.24110352 23.61811523 22.24368164 22.39624023 22.24633789 C19.48999023 22.11352539 19.48999023 22.11352539 18.48999023 21.11352539 C18.44906086 18.78055106 18.447573 16.44647314 18.48999023 14.11352539 C17.16999023 14.11352539 15.84999023 14.11352539 14.48999023 14.11352539 C14.48999023 25.99352539 14.48999023 37.87352539 14.48999023 50.11352539 C8.21999023 50.11352539 1.94999023 50.11352539 -4.51000977 50.11352539 C-4.53465177 43.15348573 -4.55284198 36.19347123 -4.56494141 29.23339844 C-4.56998318 26.86360227 -4.57681642 24.49380924 -4.58544922 22.12402344 C-4.59752166 18.725985 -4.60323947 15.32798754 -4.60766602 11.92993164 C-4.6128273 10.86327774 -4.61798859 9.79662384 -4.62330627 8.69764709 C-4.62338181 7.71670578 -4.62345734 6.73576447 -4.62353516 5.72509766 C-4.62575577 4.85683853 -4.62797638 3.98857941 -4.63026428 3.0940094 C-4.41784823 -0.40429236 -3.63083359 0.11743323 0 0 Z " fill="#FED65A" transform="translate(284.510009765625,220.886474609375)"/>
<path d="M0 0 C0.36749268 2.05604553 0.36749268 2.05604553 0.35644531 4.61743164 C0.35944641 5.57504898 0.36244751 6.53266632 0.36553955 7.51930237 C0.35319275 8.55578415 0.34084595 9.59226593 0.328125 10.66015625 C0.32625183 11.72036484 0.32437866 12.78057343 0.32244873 13.87290955 C0.31571839 16.11655822 0.30178459 18.36019497 0.28125 20.60375977 C0.25009753 24.05170501 0.24028134 27.49919363 0.234375 30.94726562 C0.22520545 33.12240145 0.21482983 35.29753259 0.203125 37.47265625 C0.19675018 39.03041527 0.19675018 39.03041527 0.19024658 40.61964417 C0.18063904 41.57410934 0.17103149 42.52857452 0.16113281 43.51196289 C0.15430481 44.35642471 0.14747681 45.20088654 0.14044189 46.07093811 C0 48 0 48 -1 49 C-2.34267413 49.08631874 -3.68974322 49.10706473 -5.03515625 49.09765625 C-5.84404297 49.09443359 -6.65292969 49.09121094 -7.48632812 49.08789062 C-8.33646484 49.07951172 -9.18660156 49.07113281 -10.0625 49.0625 C-10.91650391 49.05798828 -11.77050781 49.05347656 -12.65039062 49.04882812 C-14.76695663 49.03700373 -16.88348685 49.01906769 -19 49 C-19.0252689 42.18238106 -19.04283244 35.36477411 -19.05493164 28.54711914 C-19.05997333 26.22582549 -19.06680651 23.90453503 -19.07543945 21.58325195 C-19.08751225 18.25471205 -19.09322979 14.92621398 -19.09765625 11.59765625 C-19.10281754 10.55287613 -19.10797882 9.50809601 -19.11329651 8.43165588 C-19.11337204 7.47073532 -19.11344757 6.50981476 -19.11352539 5.51977539 C-19.115746 4.66928116 -19.11796661 3.81878693 -19.12025452 2.94252014 C-19 1 -19 1 -18 0 C-15.53867184 -0.45525759 -13.10208628 -0.84448341 -10.625 -1.1875 C-9.93921875 -1.29513672 -9.2534375 -1.40277344 -8.546875 -1.51367188 C-3.35403358 -2.23602238 -3.35403358 -2.23602238 0 0 Z " fill="#F8A830" transform="translate(216,220)"/>
<path d="M0 0 C0.79341797 -0.00386719 1.58683594 -0.00773438 2.40429688 -0.01171875 C8.31086933 -0.00163067 8.31086933 -0.00163067 9.4375 1.125 C9.45922852 2.89086914 9.45922852 2.89086914 9.31640625 5.16015625 C9.26806641 5.96904297 9.21972656 6.77792969 9.16992188 7.61132812 C9.11384766 8.46146484 9.05777344 9.31160156 9 10.1875 C8.94779297 11.04150391 8.89558594 11.89550781 8.84179688 12.77539062 C8.71171239 14.89221995 8.57520029 17.00865244 8.4375 19.125 C5.45861874 19.3188211 2.47959754 19.50535102 -0.5 19.6875 C-1.35013672 19.74357422 -2.20027344 19.79964844 -3.07617188 19.85742188 C-3.88505859 19.90576172 -4.69394531 19.95410156 -5.52734375 20.00390625 C-6.2762085 20.0510376 -7.02507324 20.09816895 -7.79663086 20.14672852 C-9.5625 20.125 -9.5625 20.125 -10.5625 19.125 C-10.64881874 17.78232587 -10.66956473 16.43525678 -10.66015625 15.08984375 C-10.65693359 14.28095703 -10.65371094 13.47207031 -10.65039062 12.63867188 C-10.64201172 11.78853516 -10.63363281 10.93839844 -10.625 10.0625 C-10.62048828 9.20849609 -10.61597656 8.35449219 -10.61132812 7.47460938 C-10.59950373 5.35804337 -10.58156769 3.24151315 -10.5625 1.125 C-7.26572112 -0.52338944 -3.61933956 -0.01772738 0 0 Z " fill="#F8A82F" transform="translate(207.5625,193.875)"/>
<path d="M0 0 C3.97915159 -0.02886984 7.95827653 -0.04675406 11.9375 -0.0625 C13.07380859 -0.07087891 14.21011719 -0.07925781 15.38085938 -0.08789062 C16.46044922 -0.09111328 17.54003906 -0.09433594 18.65234375 -0.09765625 C20.15269165 -0.10551147 20.15269165 -0.10551147 21.68334961 -0.11352539 C24 0 24 0 25 1 C25 3.97 25 6.94 25 10 C16.75 10 8.5 10 0 10 C0 6.7 0 3.4 0 0 Z " fill="#DE5453" transform="translate(148,261)"/>
<path d="M0 0 C0.66 0 1.32 0 2 0 C2.02465392 4.53897705 2.04283789 9.07791543 2.05493164 13.61694336 C2.0599714 15.16219766 2.0668032 16.70744716 2.07543945 18.25268555 C2.08752076 20.46925029 2.09323173 22.68575218 2.09765625 24.90234375 C2.10281754 25.5971434 2.10797882 26.29194305 2.11329651 27.00779724 C2.11349277 28.6722933 2.06189129 30.33665499 2 32 C1 33 1 33 -2.0625 33.0625 C-3.031875 33.041875 -4.00125 33.02125 -5 33 C-5.33 32.34 -5.66 31.68 -6 31 C-4.02 31 -2.04 31 0 31 C0 20.77 0 10.54 0 0 Z " fill="#DC4D4C" transform="translate(139,222)"/>
<path d="M0 0 C2 2 2 2 2.23046875 5.00390625 C2.20919922 6.76541016 2.20919922 6.76541016 2.1875 8.5625 C2.17783203 10.32787109 2.17783203 10.32787109 2.16796875 12.12890625 C2 15 2 15 1 16 C-1.18639453 16.07258946 -3.37500389 16.08373783 -5.5625 16.0625 C-7.35880859 16.04896484 -7.35880859 16.04896484 -9.19140625 16.03515625 C-10.11824219 16.02355469 -11.04507813 16.01195312 -12 16 C-12.33 14.35 -12.66 12.7 -13 11 C-12.67 11.99 -12.34 12.98 -12 14 C-8.04 14 -4.08 14 0 14 C0 9.38 0 4.76 0 0 Z " fill="#DD6463" transform="translate(165,239)"/>
</svg>