<?xml version="1.0" encoding="iso-8859-1"?>
<!-- Uploaded to: SVG Repo, www.svgrepo.com, Generator: SVG Repo Mixer Tools -->
<svg fill="#8cc54b" version="1.1" id="Layer_1" xmlns="http://www.w3.org/2000/svg" xmlns:xlink="http://www.w3.org/1999/xlink" 
	 viewBox="0 0 490 490" xml:space="preserve">
<g>
	<path d="M401.05,311.1c-29.2,0-55,14.1-71.1,36l-73.7-44.2c8.1-17.4,12.6-36.8,12.6-57.3c0-17.8-3.4-34.8-9.6-50.4l74.2-47.7
		c16.2,19.3,40.4,31.5,67.5,31.5c48.9,0,88.4-39.5,88.4-89.5c0-49.9-39.5-89.5-88.4-89.5c-48.9,0-88.4,39.5-88.4,89.5
		c0,7.4,0.9,14.6,2.5,21.4l-76.4,49.1c-24.7-30.4-62.1-49.7-103.9-49.7c-73.9,0-134.2,60.3-134.2,135.2s60.3,135.2,134.2,135.2
		c39,0,74.2-16.8,98.8-43.7l80.4,48.2c-0.8,5-1.3,10.1-1.3,15.3c0,49.9,39.5,89.5,88.4,89.5c48.9,0,88.4-39.5,88.4-89.5
		C489.45,350.6,449.85,311.1,401.05,311.1z M401.05,41.6c26,0,47.9,21.8,47.9,48.9s-21.8,48.9-47.9,48.9
		c-26.1,0-47.9-21.8-47.9-48.9S374.95,41.6,401.05,41.6z M134.65,340.2c-52,0-93.6-42.7-93.6-94.7s41.6-94.7,93.6-94.7
		s93.6,42.7,93.6,94.7S186.65,340.2,134.65,340.2z M401.05,450.5c-26,0-47.9-21.8-47.9-48.9c0-27.1,21.8-48.9,47.9-48.9
		c26.1,0,47.9,21.8,47.9,48.9C448.95,428.7,427.05,450.5,401.05,450.5z"/>
	<path d="M401.05,311.1c-29.2,0-55,14.1-71.1,36l-73.7-44.2c8.1-17.4,12.6-36.8,12.6-57.3c0-17.8-3.4-34.8-9.6-50.4l74.2-47.7
		c16.2,19.3,40.4,31.5,67.5,31.5c48.9,0,88.4-39.5,88.4-89.5c0-49.9-39.5-89.5-88.4-89.5c-48.9,0-88.4,39.5-88.4,89.5
		c0,7.4,0.9,14.6,2.5,21.4l-76.4,49.1c-24.7-30.4-62.1-49.7-103.9-49.7c-73.9,0-134.2,60.3-134.2,135.2s60.3,135.2,134.2,135.2
		c39,0,74.2-16.8,98.8-43.7l80.4,48.2c-0.8,5-1.3,10.1-1.3,15.3c0,49.9,39.5,89.5,88.4,89.5c48.9,0,88.4-39.5,88.4-89.5
		C489.45,350.6,449.85,311.1,401.05,311.1z M401.05,41.6c26,0,47.9,21.8,47.9,48.9s-21.8,48.9-47.9,48.9
		c-26.1,0-47.9-21.8-47.9-48.9S374.95,41.6,401.05,41.6z M134.65,340.2c-52,0-93.6-42.7-93.6-94.7s41.6-94.7,93.6-94.7
		s93.6,42.7,93.6,94.7S186.65,340.2,134.65,340.2z M401.05,450.5c-26,0-47.9-21.8-47.9-48.9c0-27.1,21.8-48.9,47.9-48.9
		c26.1,0,47.9,21.8,47.9,48.9C448.95,428.7,427.05,450.5,401.05,450.5z"/>
</g>
</svg>